<svg width="2015" height="1317" viewBox="0 0 2015 1317" fill="none" xmlns="http://www.w3.org/2000/svg">
<g filter="url(#filter0_d_3530_8235)">
<mask id="mask0_3530_8235" style="mask-type:alpha" maskUnits="userSpaceOnUse" x="0" y="79" width="2015" height="1238">
<path d="M489.036 110.438C235.132 68.4784 44.4606 226.291 0 263.473V1317H2015V79C1854.32 327.423 1540.16 460.244 1158.85 388.915C838.106 328.916 711.612 147.22 489.036 110.438Z" fill="#DECBCB"/>
</mask>
<g mask="url(#mask0_3530_8235)">
<rect x="-2.25" y="-223.508" width="2064.34" height="1539.74" fill="#FF6600"/>
<g opacity="0.5">
<path d="M1210.27 608.485C1219.1 547.495 1186.6 477.413 1132.98 431.589C1052.38 362.659 907.476 331.24 767.325 416.134C760.106 420.515 753.158 421.137 749.743 419.13C744.367 415.979 745.196 408.149 749.333 403.072C779.12 366.417 900.917 203.93 1074.83 203.93C1190.39 203.93 1299.18 284.247 1330.32 399.392C1338.48 429.565 1342.29 454.792 1342.49 476.44C1342.49 476.44 1326.06 549.966 1240.26 594.386C1230.45 599.474 1220.45 604.178 1210.27 608.485Z" fill="#FD822F"/>
<path d="M592.615 293.029C633.664 329.819 855.203 523.474 881.929 546.852C1026.12 672.997 1158.06 636.924 1240.24 594.374C1326.05 549.97 1342.51 476.424 1342.47 476.424C1342.85 500.836 1346.48 649.754 1198.39 746.678C1101.47 810.161 932.951 859.84 745.102 697.935C707.624 665.616 468.716 462.292 442.011 438.909C297.801 312.784 157.166 355.884 74.3005 427.481C49.9468 448.522 18.686 484.75 5.91406 517.049C6.75951 502.058 3.77582 418.141 90.6471 316.037C132.267 267.135 213.269 191.508 349.767 191.508C428.997 191.528 500.285 210.179 592.615 293.029Z" fill="#FD822F"/>
<path d="M5.96598 516.84C2.91158 551.697 6.37755 586.815 16.1893 620.422C49.4283 735.021 154.505 796.223 270.044 796.223C444.02 796.223 563.285 633.524 592.035 596.05C596.332 590.464 596.508 584.096 591.583 579.992C588.542 577.46 581.224 578.608 574.001 582.989C433.875 667.883 294.201 636.309 213.535 567.375C156.976 519.039 123.877 449.002 138.064 385.227C115.052 396.523 93.6146 410.736 74.291 427.508C49.9783 448.472 18.8405 484.643 5.96598 516.84Z" fill="#FD822F"/>
</g>
</g>
</g>
<defs>
<filter id="filter0_d_3530_8235" x="-75" y="0" width="2165" height="1387.23" filterUnits="userSpaceOnUse" color-interpolation-filters="sRGB">
<feFlood flood-opacity="0" result="BackgroundImageFix"/>
<feColorMatrix in="SourceAlpha" type="matrix" values="0 0 0 0 0 0 0 0 0 0 0 0 0 0 0 0 0 0 127 0" result="hardAlpha"/>
<feOffset dy="-4"/>
<feGaussianBlur stdDeviation="37.5"/>
<feComposite in2="hardAlpha" operator="out"/>
<feColorMatrix type="matrix" values="0 0 0 0 0 0 0 0 0 0 0 0 0 0 0 0 0 0 0.25 0"/>
<feBlend mode="normal" in2="BackgroundImageFix" result="effect1_dropShadow_3530_8235"/>
<feBlend mode="normal" in="SourceGraphic" in2="effect1_dropShadow_3530_8235" result="shape"/>
</filter>
</defs>
</svg>
