<svg width="234" height="99" viewBox="0 0 234 99" fill="none" xmlns="http://www.w3.org/2000/svg">
<g filter="url(#filter0_d_3230_92379)">
<g clip-path="url(#clip0_3230_92379)">
<path d="M135.451 43.2464C135.755 41.1476 134.637 38.7359 132.793 37.159C130.022 34.787 125.038 33.7058 120.219 36.6271C119.971 36.7779 119.732 36.7993 119.614 36.7303C119.429 36.6218 119.458 36.3524 119.6 36.1777C120.624 34.9163 124.813 29.3247 130.794 29.3247C134.767 29.3247 138.508 32.0886 139.579 36.051C139.86 37.0894 139.991 37.9575 139.998 38.7024C139.998 38.7024 139.433 41.2326 136.482 42.7612C136.145 42.9363 135.801 43.0982 135.451 43.2464Z" fill="#FF6600"/>
<path d="M114.211 32.3906C115.623 33.6566 123.241 40.3207 124.16 41.1252C129.119 45.4662 133.656 44.2248 136.482 42.7605C139.433 41.2325 139.999 38.7016 139.998 38.7016C140.01 39.5417 140.135 44.6663 135.043 48.0017C131.71 50.1863 125.915 51.8959 119.455 46.3243C118.166 45.2122 109.95 38.2153 109.032 37.4106C104.073 33.0704 99.2365 34.5536 96.3869 37.0174C95.5494 37.7414 94.4744 38.9881 94.0352 40.0996C94.0642 39.5837 93.9616 36.696 96.949 33.1823C98.3803 31.4995 101.166 28.897 105.86 28.897C108.584 28.8977 111.036 29.5395 114.211 32.3906Z" fill="#FF6600"/>
<path d="M94.037 40.0921C93.9319 41.2916 94.0511 42.5001 94.3885 43.6566C95.5316 47.6002 99.145 49.7064 103.118 49.7064C109.101 49.7064 113.202 44.1075 114.191 42.8179C114.339 42.6257 114.345 42.4066 114.176 42.2653C114.071 42.1782 113.819 42.2177 113.571 42.3685C108.752 45.2899 103.949 44.2033 101.175 41.8311C99.23 40.1678 98.0918 37.7576 98.5797 35.563C97.7883 35.9517 97.0511 36.4408 96.3866 37.018C95.5505 37.7394 94.4797 38.9841 94.037 40.0921Z" fill="#FF6600"/>
<path d="M55.9473 68.8806L56.0493 66.1732C56.3705 66.2248 56.695 66.2506 57.0195 66.2524C58.5702 66.2524 58.9115 65.2788 58.9115 63.8065V57.9979H56.5361V55.2905H69.982L69.9569 68.8806H67.3239L67.349 57.9979H61.5461V64.2003C61.5461 67.4856 60.2179 68.9838 57.3273 68.9838C56.8656 68.9958 56.4023 68.9597 55.9473 68.8789V68.8806Z" fill="#353535"/>
<path d="M73.9213 57.9979H71.75V55.2905H76.5576V68.8789H73.9246L73.9213 57.9979Z" fill="#353535"/>
<path d="M79.3438 55.2905H86.142C89.4909 55.2905 90.8476 56.4997 90.8476 60.2047V68.8789H88.2146V60.2047C88.2146 58.495 87.5756 57.9979 86.142 57.9979H81.9767V68.8806H79.3438V55.2905Z" fill="#353535"/>
<path d="M93.3462 68.8548L93.3713 66.1474C94.5038 66.273 95.6429 66.3349 96.7838 66.3315C100.924 66.3315 101.998 64.5168 101.998 61.9935C101.998 59.2569 101.051 57.8482 97.9347 57.8482H95.7851L95.6831 58.9525C95.479 60.7929 96.1699 61.2935 97.2338 61.3726C97.565 61.4036 97.8995 61.395 98.2291 61.3468L98.4097 63.2922C97.8694 63.4487 97.3091 63.5192 96.747 63.5003C94.651 63.4745 92.759 62.6076 93.1672 58.4795L93.5269 55.2905H98.4649C102.808 55.2905 104.668 57.6281 104.668 62.0193C104.668 66.1646 102.496 69.0354 96.9728 69.0354C95.7617 69.0388 94.5523 68.9786 93.3462 68.8531V68.8548Z" fill="#353535"/>
<path d="M106.648 61.7032V55.2891H109.281L109.31 61.7032C109.31 64.6221 110.661 66.3817 112.89 66.3817C115.118 66.3817 116.469 64.6203 116.469 61.729C116.469 59.2057 115.753 57.7333 114.091 57.7333C113.4 57.7385 112.729 57.9689 112.174 58.3904L111.433 56.3676C112.428 55.5506 113.661 55.1016 114.934 55.0913C117.821 55.0913 119.102 57.5338 119.102 61.4004C119.102 65.7384 117.241 69.1028 112.838 69.1028C108.39 69.0907 106.65 65.7246 106.65 61.7032H106.648Z" fill="#353535"/>
<path d="M127.054 57.9979H124.928V55.2905H129.687V63.9905H127.054V57.9979Z" fill="#353535"/>
<path d="M132.32 55.2905H139.119C142.469 55.2905 143.824 56.4997 143.824 60.2047V68.8789H141.191V60.2047C141.191 58.495 140.552 57.9979 139.119 57.9979H134.953V68.8806H132.32V55.2905Z" fill="#353535"/>
<path d="M150.266 57.9979H145.434V55.2905H150.266C153.846 55.2905 155.176 56.4739 155.176 60.4163V68.8806H152.543V60.4163C152.543 58.4967 151.904 57.9996 150.266 57.9996V57.9979Z" fill="#353535"/>
<path d="M156.787 57.4856L157.02 55.2788H163V57.9862L160.011 57.9311C161.62 59.1695 161.928 61.7582 161.928 65.0297V68.8568H159.295V65.1381C159.32 60.9377 158.885 58.7309 156.789 57.4839L156.787 57.4856Z" fill="#353535"/>
<path d="M170.89 68.9079L171.071 66.1971C171.426 66.2591 171.784 66.2935 172.145 66.3021C174.676 66.2763 175.442 63.9903 175.442 61.7835C175.442 59.1811 174.164 57.7879 172.272 57.7879C170.203 57.7879 169.052 59.3376 168.667 62.2823L167.824 68.8804H165.089L166.419 60.0497C165.986 58.5172 165.34 57.0568 164.502 55.7118V55.2904H167.262C167.734 56.0833 168.12 56.9261 168.41 57.8068C168.804 56.9657 169.427 56.2622 170.203 55.7771C170.977 55.2921 171.874 55.0478 172.781 55.0736C175.773 55.0736 178.023 57.1497 178.053 61.6184C178.053 65.1273 176.75 69.0043 172.352 69.0043C171.864 69.0094 171.375 68.9767 170.892 68.9079H170.89Z" fill="#353535"/>
<path d="M55.9473 68.8806L56.0493 66.1732C56.3705 66.2248 56.695 66.2506 57.0195 66.2524C58.5702 66.2524 58.9115 65.2788 58.9115 63.8065V57.9979H56.5361V55.2905H69.982L69.9569 68.8806H67.3239L67.349 57.9979H61.5461V64.2003C61.5461 67.4856 60.2179 68.9838 57.3273 68.9838C56.8656 68.9958 56.4023 68.9597 55.9473 68.8789V68.8806Z" fill="#353535"/>
<path d="M73.9213 57.9979H71.75V55.2905H76.5576V68.8789H73.9246L73.9213 57.9979Z" fill="#353535"/>
<path d="M79.3438 55.2905H86.142C89.4909 55.2905 90.8476 56.4997 90.8476 60.2047V68.8789H88.2146V60.2047C88.2146 58.495 87.5756 57.9979 86.142 57.9979H81.9767V68.8806H79.3438V55.2905Z" fill="#353535"/>
<path d="M93.3462 68.8548L93.3713 66.1474C94.5038 66.273 95.6429 66.3349 96.7838 66.3315C100.924 66.3315 101.998 64.5168 101.998 61.9935C101.998 59.2569 101.051 57.8482 97.9347 57.8482H95.7851L95.6831 58.9525C95.479 60.7929 96.1699 61.2935 97.2338 61.3726C97.565 61.4036 97.8995 61.395 98.2291 61.3468L98.4097 63.2922C97.8694 63.4487 97.3091 63.5192 96.747 63.5003C94.651 63.4745 92.759 62.6076 93.1672 58.4795L93.5269 55.2905H98.4649C102.808 55.2905 104.668 57.6281 104.668 62.0193C104.668 66.1646 102.496 69.0354 96.9728 69.0354C95.7617 69.0388 94.5523 68.9786 93.3462 68.8531V68.8548Z" fill="#353535"/>
<path d="M106.648 61.7032V55.2891H109.281L109.31 61.7032C109.31 64.6221 110.661 66.3817 112.89 66.3817C115.118 66.3817 116.469 64.6203 116.469 61.729C116.469 59.2057 115.753 57.7333 114.091 57.7333C113.4 57.7385 112.729 57.9689 112.174 58.3904L111.433 56.3676C112.428 55.5506 113.661 55.1016 114.934 55.0913C117.821 55.0913 119.102 57.5338 119.102 61.4004C119.102 65.7384 117.241 69.1028 112.838 69.1028C108.39 69.0907 106.65 65.7246 106.65 61.7032H106.648Z" fill="#353535"/>
<path d="M127.054 57.9979H124.928V55.2905H129.687V63.9905H127.054V57.9979Z" fill="#353535"/>
<path d="M132.32 55.2905H139.119C142.469 55.2905 143.824 56.4997 143.824 60.2047V68.8789H141.191V60.2047C141.191 58.495 140.552 57.9979 139.119 57.9979H134.953V68.8806H132.32V55.2905Z" fill="#353535"/>
<path d="M150.266 57.9979H145.434V55.2905H150.266C153.846 55.2905 155.176 56.4739 155.176 60.4163V68.8806H152.543V60.4163C152.543 58.4967 151.904 57.9996 150.266 57.9996V57.9979Z" fill="#353535"/>
<path d="M156.787 57.4856L157.02 55.2788H163V57.9862L160.011 57.9311C161.62 59.1695 161.928 61.7582 161.928 65.0297V68.8568H159.295V65.1381C159.32 60.9377 158.885 58.7309 156.789 57.4839L156.787 57.4856Z" fill="#353535"/>
<path d="M170.89 68.9079L171.071 66.1971C171.426 66.2591 171.784 66.2935 172.145 66.3021C174.676 66.2763 175.442 63.9903 175.442 61.7835C175.442 59.1811 174.164 57.7879 172.272 57.7879C170.203 57.7879 169.052 59.3376 168.667 62.2823L167.824 68.8804H165.089L166.419 60.0497C165.986 58.5172 165.34 57.0568 164.502 55.7118V55.2904H167.262C167.734 56.0833 168.12 56.9261 168.41 57.8068C168.804 56.9657 169.427 56.2622 170.203 55.7771C170.977 55.2921 171.874 55.0478 172.781 55.0736C175.773 55.0736 178.023 57.1497 178.053 61.6184C178.053 65.1273 176.75 69.0043 172.352 69.0043C171.864 69.0094 171.375 68.9767 170.892 68.9079H170.89Z" fill="#353535"/>
</g>
</g>
<defs>
<filter id="filter0_d_3230_92379" x="0" y="-0.5" width="234" height="99" filterUnits="userSpaceOnUse" color-interpolation-filters="sRGB">
<feFlood flood-opacity="0" result="BackgroundImageFix"/>
<feColorMatrix in="SourceAlpha" type="matrix" values="0 0 0 0 0 0 0 0 0 0 0 0 0 0 0 0 0 0 127 0" result="hardAlpha"/>
<feOffset/>
<feGaussianBlur stdDeviation="6.75"/>
<feColorMatrix type="matrix" values="0 0 0 0 0.28883 0 0 0 0 0.302486 0 0 0 0 0.360145 0 0 0 0.15 0"/>
<feBlend mode="normal" in2="BackgroundImageFix" result="effect1_dropShadow_3230_92379"/>
<feBlend mode="normal" in="SourceGraphic" in2="effect1_dropShadow_3230_92379" result="shape"/>
</filter>
<clipPath id="clip0_3230_92379">
<rect width="122.106" height="40.2056" fill="white" transform="translate(55.9473 28.897)"/>
</clipPath>
</defs>
</svg>
